<?xml version="1.0" encoding="UTF-8" standalone="no"?>
<svg
   xmlns:dc="http://purl.org/dc/elements/1.1/"
   xmlns:cc="http://creativecommons.org/ns#"
   xmlns:rdf="http://www.w3.org/1999/02/22-rdf-syntax-ns#"
   xmlns:svg="http://www.w3.org/2000/svg"
   xmlns="http://www.w3.org/2000/svg"
   xmlns:sodipodi="http://sodipodi.sourceforge.net/DTD/sodipodi-0.dtd"
   xmlns:inkscape="http://www.inkscape.org/namespaces/inkscape"
   version="1.1"
   id="svg2"
   viewBox="0 0 154.06494 26.472169"
   height="7.4710345mm"
   width="43.480549mm"
   inkscape:version="0.91 r13725"
   sodipodi:docname="ABC.svg">
  <sodipodi:namedview
     pagecolor="#ffffff"
     bordercolor="#666666"
     borderopacity="1"
     objecttolerance="10"
     gridtolerance="10"
     guidetolerance="10"
     inkscape:pageopacity="0"
     inkscape:pageshadow="2"
     inkscape:window-width="1920"
     inkscape:window-height="1016"
     id="namedview4147"
     showgrid="false"
     inkscape:zoom="8.4055466"
     inkscape:cx="77.032468"
     inkscape:cy="13.236085"
     inkscape:window-x="0"
     inkscape:window-y="27"
     inkscape:window-maximized="1"
     inkscape:current-layer="svg2" />
  <defs
     id="defs4" />
  <metadata
     id="metadata7">
    <rdf:RDF>
      <cc:Work
         rdf:about="">
        <dc:format>image/svg+xml</dc:format>
        <dc:type
           rdf:resource="http://purl.org/dc/dcmitype/StillImage" />
        <dc:title />
      </cc:Work>
    </rdf:RDF>
  </metadata>
  <g
     transform="translate(-35.463169,-314.59992)"
     id="layer1">
    <g
       id="text4151"
       style="font-style:normal;font-weight:normal;font-size:35px;line-height:125%;font-family:sans-serif;text-align:end;letter-spacing:0px;word-spacing:0px;text-anchor:end;fill:#000000;fill-opacity:1;stroke:none;stroke-width:1px;stroke-linecap:butt;stroke-linejoin:miter;stroke-opacity:1">
      <path
         id="path4156"
         style="font-style:normal;font-variant:normal;font-weight:normal;font-stretch:normal;font-family:serif;-inkscape-font-specification:serif"
         d="m 42.67395,331.32858 9.365235,0 -4.682618,-12.13379 -4.682617,12.13379 z m -7.211914,9.24561 0,-1.81153 2.23877,0 9.091797,-23.70361 2.871093,0 9.108887,23.70361 2.512207,0 0,1.81153 -9.279785,0 0,-1.81153 2.836914,0 -2.136231,-5.60546 -10.732421,0 -2.136231,5.60546 2.802735,0 0,1.81153 -7.177735,0 z" />
      <path
         id="path4158"
         style="font-style:normal;font-variant:normal;font-weight:normal;font-stretch:normal;font-family:serif;-inkscape-font-specification:serif"
         d="m 69.607544,338.76266 c 1.703288,0 3.406575,0 5.109863,0 2.050781,0 3.548991,-0.44433 4.494629,-1.333 0.945638,-0.88867 1.418457,-2.30143 1.418457,-4.23828 0,-1.92546 -0.472819,-3.32683 -1.418457,-4.20411 -0.934245,-0.88867 -2.432454,-1.333 -4.494629,-1.333 -1.703288,0 -3.406575,0 -5.109863,0 0,3.7028 0,7.40559 0,11.10839 z m 0,-12.91992 c 1.44694,0 2.89388,0 4.34082,0 1.86849,0 3.229981,-0.35889 4.084473,-1.07666 0.865885,-0.71777 1.298828,-1.8514 1.298828,-3.40088 0,-1.56087 -0.432943,-2.69449 -1.298828,-3.40088 -0.854492,-0.71777 -2.215983,-1.07666 -4.084473,-1.07666 -1.44694,0 -2.89388,0 -4.34082,0 0,2.98503 0,5.97005 0,8.95508 z m -6.716309,14.73145 c 0,-0.60384 0,-1.20769 0,-1.81153 1.082357,0 2.164714,0 3.247071,0 0,-7.29167 0,-14.58333 0,-21.875 -1.082357,0 -2.164714,0 -3.247071,0 0,-0.60954 0,-1.21907 0,-1.82861 4.198405,0 8.39681,0 12.595215,0 2.57487,0 4.511719,0.52979 5.810547,1.58936 1.310221,1.04817 1.965332,2.62044 1.965332,4.71679 0,1.5153 -0.455729,2.72298 -1.367187,3.62305 -0.900065,0.90007 -2.22168,1.45264 -3.964844,1.65772 2.164713,0.27343 3.805338,0.96842 4.921875,2.08496 1.127929,1.10514 1.691894,2.59196 1.691894,4.46045 0,2.52929 -0.797526,4.39208 -2.392578,5.58837 -1.595052,1.19629 -4.084472,1.79444 -7.468261,1.79444 -3.930664,0 -7.861329,0 -11.791993,0 z"
         inkscape:connector-curvature="0"
         sodipodi:nodetypes="cssscscccscscsccccccccscscccsssc" />
      <path
         id="path4160"
         style="font-style:normal;font-variant:normal;font-weight:normal;font-stretch:normal;font-family:serif;-inkscape-font-specification:serif"
         d="m 112.02454,333.8237 c -0.75195,2.38119 -2.0166,4.18701 -3.79395,5.41748 -1.76595,1.21907 -4.00472,1.82861 -6.71631,1.82861 -1.66341,0 -3.207192,-0.28483 -4.631345,-0.85449 -1.424154,-0.56966 -2.688803,-1.40706 -3.793946,-2.51221 -1.276041,-1.27604 -2.227376,-2.72298 -2.854004,-4.34082 -0.615234,-1.62923 -0.922851,-3.46923 -0.922851,-5.52002 0,-3.96484 1.145019,-7.16064 3.435058,-9.5874 2.290039,-2.43815 5.309245,-3.65722 9.057618,-3.65722 1.38997,0 2.87109,0.18229 4.44336,0.54687 1.57227,0.36459 3.26416,0.91716 5.07568,1.65772 0,1.95963 0,3.91927 0,5.8789 -0.64372,0 -1.28743,0 -1.93115,0 -0.42155,-2.14193 -1.27034,-3.71989 -2.54639,-4.73388 -1.26465,-1.014 -3.04199,-1.521 -5.33203,-1.521 -2.72298,0 -4.785154,0.96842 -6.186521,2.90527 -1.401367,1.92546 -2.102051,4.76237 -2.102051,8.51074 0,3.73698 0.700684,6.5739 2.102051,8.51075 1.401367,1.92545 3.463541,2.88818 6.186521,2.88818 1.90267,0 3.46924,-0.45003 4.69971,-1.3501 1.23047,-0.91145 2.11914,-2.26725 2.66601,-4.06738 1.04818,0 2.09636,0 3.14454,0 z"
         inkscape:connector-curvature="0"
         sodipodi:nodetypes="ccssscscssccccscscsccc" />
      <path
         id="path4162"
         style="font-style:normal;font-variant:normal;font-weight:normal;font-stretch:normal;font-family:serif;-inkscape-font-specification:serif"
         d="m 130.2594,340.57419 0,-1.81153 4.44336,0 0,-21.22558 -5.14404,3.33252 0,-2.23877 6.2207,-4.0332 2.3584,0 0,24.16503 4.44336,0 0,1.81153 -12.32178,0 z" />
      <path
         id="path4164"
         style="font-style:normal;font-variant:normal;font-weight:normal;font-stretch:normal;font-family:serif;-inkscape-font-specification:serif"
         d="m 152.04895,321.14304 -1.91406,0 0,-4.5459 q 1.82861,-0.97412 3.67431,-1.48682 1.8628,-0.51269 3.64014,-0.51269 3.98193,0 6.28906,1.93115 2.30713,1.93115 2.30713,5.24658 0,3.74268 -5.22949,8.95508 -0.41016,0.39306 -0.61523,0.59814 l -6.44288,6.44287 10.64698,0 0,-3.14453 1.99951,0 0,5.94727 -16.45752,0 0,-1.86279 7.7417,-7.72461 q 2.56348,-2.56348 3.65723,-4.69971 1.09375,-2.15332 1.09375,-4.51172 0,-2.58057 -1.3501,-4.0332 -1.33301,-1.45264 -3.69141,-1.45264 -2.44385,0 -3.77685,1.21338 -1.33301,1.21338 -1.57227,3.64014 z" />
      <path
         id="path4166"
         style="font-style:normal;font-variant:normal;font-weight:normal;font-stretch:normal;font-family:serif;-inkscape-font-specification:serif"
         d="m 173.25745,316.13571 q 1.99951,-0.75195 3.82812,-1.14502 1.8457,-0.39306 3.45215,-0.39306 3.74268,0 5.84473,1.62353 2.10205,1.60645 2.10205,4.47754 0,2.30713 -1.45264,3.8623 -1.45264,1.53809 -4.11865,2.08497 3.14453,0.44433 4.8706,2.29003 1.74317,1.82862 1.74317,4.75098 0,3.57178 -2.40967,5.48584 -2.39258,1.89697 -6.9043,1.89697 -1.99951,0 -3.91357,-0.42724 -1.89697,-0.42725 -3.77686,-1.29883 l 0,-4.95606 1.91407,0 q 0.17089,2.46094 1.65771,3.72559 1.48682,1.26465 4.18701,1.26465 2.61475,0 4.11865,-1.50391 1.521,-1.52099 1.521,-4.15283 0,-3.00781 -1.55518,-4.5459 -1.55517,-1.55517 -4.56298,-1.55517 l -1.62354,0 0,-1.74317 0.85449,0 q 2.99073,0 4.47754,-1.23047 1.50391,-1.24755 1.50391,-3.74267 0,-2.23877 -1.23047,-3.41797 -1.23047,-1.19629 -3.5376,-1.19629 -2.30713,0 -3.58886,1.09375 -1.26465,1.09375 -1.48682,3.24707 l -1.91406,0 0,-4.49463 z" />
    </g>
  </g>
</svg>
